o sedan_body
v -0.83 0.1 -2.36
v -0.83 0.41 -2.36
v -0.6889 0.49 -2.36
v 0.6889 0.49 -2.36
v 0.83 0.41 -2.36
v 0.83 0.1 -2.36
v -1.02 0.05 -2.01
v -1.02 0.5800000000000001 -2.01
v -0.8466 0.66 -2.01
v 0.8466 0.66 -2.01
v 1.02 0.5800000000000001 -2.01
v 1.02 0.05 -2.01
v -1.02 0.05 2.06
v -1.02 0.62 2.06
v -0.8466 0.7 2.06
v 0.8466 0.7 2.06
v 1.02 0.62 2.06
v 1.02 0.05 2.06
v -0.88 0.12 2.36
v -0.88 0.48000000000000004 2.36
v -0.7303999999999999 0.56 2.36
v 0.7303999999999999 0.56 2.36
v 0.88 0.48000000000000004 2.36
v 0.88 0.12 2.36
f 1 7 8 2
f 2 8 9 3
f 3 9 10 4
f 4 10 11 5
f 5 11 12 6
f 6 12 7 1
f 7 13 14 8
f 8 14 15 9
f 9 15 16 10
f 10 16 17 11
f 11 17 18 12
f 12 18 13 7
f 13 19 20 14
f 14 20 21 15
f 15 21 22 16
f 16 22 23 17
f 17 23 24 18
f 18 24 19 13
f 1 2 3 4 5 6
f 24 23 22 21 20 19
