o sedan_cab
v -0.91 0.62 -1.35
v -0.91 0.5900000000000001 -1.35
v -0.7553 0.67 -1.35
v 0.7553 0.67 -1.35
v 0.91 0.5900000000000001 -1.35
v 0.91 0.62 -1.35
v -0.84 0.63 -0.66
v -0.84 1.38 -0.66
v -0.6971999999999999 1.46 -0.66
v 0.6971999999999999 1.46 -0.66
v 0.84 1.38 -0.66
v 0.84 0.63 -0.66
v -0.83 0.63 0.74
v -0.83 1.39 0.74
v -0.6889 1.47 0.74
v 0.6889 1.47 0.74
v 0.83 1.39 0.74
v 0.83 0.63 0.74
v -0.93 0.63 1.48
v -0.93 0.5900000000000001 1.48
v -0.7719 0.67 1.48
v 0.7719 0.67 1.48
v 0.93 0.5900000000000001 1.48
v 0.93 0.63 1.48
f 1 7 8 2
f 2 8 9 3
f 3 9 10 4
f 4 10 11 5
f 5 11 12 6
f 6 12 7 1
f 7 13 14 8
f 8 14 15 9
f 9 15 16 10
f 10 16 17 11
f 11 17 18 12
f 12 18 13 7
f 13 19 20 14
f 14 20 21 15
f 15 21 22 16
f 16 22 23 17
f 17 23 24 18
f 18 24 19 13
f 1 2 3 4 5 6
f 24 23 22 21 20 19
